<?xml version="1.0" encoding="UTF-8" standalone="no"?>
<svg
   xmlns:dc="http://purl.org/dc/elements/1.1/"
   xmlns:cc="http://creativecommons.org/ns#"
   xmlns:rdf="http://www.w3.org/1999/02/22-rdf-syntax-ns#"
   xmlns:svg="http://www.w3.org/2000/svg"
   xmlns="http://www.w3.org/2000/svg"
   xmlns:xlink="http://www.w3.org/1999/xlink"
   xmlns:sodipodi="http://sodipodi.sourceforge.net/DTD/sodipodi-0.dtd"
   xmlns:inkscape="http://www.inkscape.org/namespaces/inkscape"
   viewBox="0 0 412.5 415.3125"
   height="415.3125"
   width="412.5"
   version="1.1"
   id="svg3608"
   inkscape:version="0.91 r13725"
   sodipodi:docname="france.svg">
  <sodipodi:namedview
     pagecolor="#ffffff"
     bordercolor="#666666"
     borderopacity="1"
     objecttolerance="10"
     gridtolerance="10"
     guidetolerance="10"
     inkscape:pageopacity="0"
     inkscape:pageshadow="2"
     inkscape:window-width="1380"
     inkscape:window-height="856"
     id="namedview55"
     showgrid="false"
     inkscape:zoom="1.42"
     inkscape:cx="44.096221"
     inkscape:cy="195.15355"
     inkscape:window-x="0"
     inkscape:window-y="0"
     inkscape:window-maximized="0"
     inkscape:current-layer="cities" />
  <metadata
     id="metadata3614">
    <rdf:RDF>
      <cc:Work
         rdf:about="">
        <dc:format>image/svg+xml</dc:format>
        <dc:type
           rdf:resource="http://purl.org/dc/dcmitype/StillImage" />
        <dc:title />
      </cc:Work>
    </rdf:RDF>
  </metadata>
  <defs
     id="defs3612" />
  <g
     style="display:inline"
     inkscape:groupmode="layer"
     id="france"
     inkscape:label="france">
    <path
       id="map"
       d="m 239.75,5.3125 1,3.25 2,2.5 -0.25,1.5 -1.25,1.25 0,2.75 0.5,1.75 6,4.5 2.75,2.25 -0.25,-3.5 1.75,-0.75 0.5,0 1.25,-1.75 2.25,0 0,1 1.75,3.5 1,2.75 0,3.5 0.25,2 2.25,1.25 3.5,0.5 3.5,0 1.25,1.75 -0.25,3.5 0.25,2.25 1.5,2 2.5,-1.5 1.5,-1 4,0 0.75,0.5 3.25,1.75 1.25,2.5 0.25,2 -0.75,2.25 -0.25,1.5 1.25,2 -0.5,2.25 -0.5,2 2.25,1 3.5,0.25 2.75,1.25 2.75,0.5 1,-0.25 1.75,-2 1.75,-0.5 1,-1.75 0.75,-1.5 -0.25,-2.5 2.25,-1.75 2,-1.25 2,2.25 0,2.75 -0.5,2 -1,2 -0.75,1.25 1.25,1.75 0.75,2.25 -0.75,2 -0.5,2.25 0.75,1 2,0.5 1.75,-0.75 2.75,1.5 2,2 2.75,0.75 1,1 0.75,2 1.25,1.25 3,1.5 0.25,1.25 0.25,1.5 1.25,0.75 2,-0.5 2.5,-1.75 3.5,-0.5 2.5,0.75 1.75,2 2.25,1.5 2.25,0 2.25,-0.75 1.5,-1.25 0.75,0 2,1.5 1.5,1 3,-0.5 1.75,1.25 0.75,2.25 0,2.5 1.75,2.25 4.25,4.5 2.25,1.75 1.5,-1 0.75,-0.75 2.75,2.25 3.5,0.25 1.75,1 1.75,0 1,1.25 2.5,-1.5 1,-0.5 3,-0.25 2.5,1.5 2.75,2.5 2,1 6.25,0 0.5,-1.75 1.5,0.25 2,1.75 1.5,1 2.75,-0.25 1.5,0.5 0,1 -0.5,1.25 -2,1 0,4.25 -2.5,3.75 -2.5,1.25 -2,4 -0.25,2.25 -2.5,0.25 -0.5,2.5 0.25,2.75 -1.25,2.5 -0.5,1.25 0.25,4.5 -0.5,1.75 -2.75,3 -0.75,3.5 -0.75,1.5 0,1.75 1.25,2 -1.5,3.25 -1.5,3.5 -0.5,3 0,3.25 0.75,2.5 2.25,2.75 0,1.25 -1.25,1.5 -1.25,0.75 0.25,2 -0.75,1 -2,0 -1.5,0 -1.25,2.75 -1.75,0.5 -1.5,-0.25 -2.25,-2.75 -1.25,0.25 -1,-1 -2.25,-0.5 -2.5,1.75 0.25,2.5 -1.25,1.5 0.75,6.25 -1.25,3 -3.75,4.25 -1.5,2.25 -3.25,2 -3.25,1.25 -2.25,1 -0.25,2 -0.75,3.25 -0.5,4.75 -2.25,2.75 -1.75,0.25 -1.5,3.25 -3.5,1.75 -0.75,7.75 1.75,1.75 0,2.5 -1,3.25 -1.75,3 -1.5,1.5 3.75,0 3.75,-2.25 1.5,-2 -0.25,-4.5 2.75,-2.5 3.25,-0.75 4.75,-0.5 3.25,0.25 2.75,2.25 0,3.25 0.5,1.75 -1,3.25 -0.25,1 3.25,0.5 0.75,2.75 2.5,2.25 0.25,2.75 -0.25,4.5 0,1 -2.25,0.25 -3.25,1.5 -1.25,2 2.75,3 3.5,2 0.5,2.75 0,1.75 1.75,1.75 2.75,2 1.75,2.5 -0.75,3.5 -1.25,3.5 -1.75,3.25 -2,0.5 -1.25,1 -1.75,0 -0.5,2.5 -2.75,0.25 -2,-1.5 -1.75,-0.25 -1.75,0.5 -0.5,1.25 1.5,2.75 0.5,3.25 1.25,-0.75 1.5,1 0,1.75 -1.5,1.75 1.5,1 2.25,1.5 1.25,0.75 2.5,-1.25 1.25,0.75 0.25,3.5 0,1.75 2.25,1.75 -2.25,1.75 -0.75,2.75 -1.25,2.75 -2,1.75 1,2.25 2,0.5 0.25,1.25 -2,1.5 -0.5,1.5 1.75,2.75 1.5,1.75 -0.25,1.5 1.5,0.5 2.75,-0.5 1.25,1.75 2.5,1 3,0 2.25,1.75 3,-0.5 3,-1.75 2.5,-0.5 1.75,0.75 1.25,1.25 0.25,3 -1.75,2.5 0,1.75 -4.25,6.25 -1,3.25 -2,2.5 -1,3 -1.25,1.5 -2.75,-2 -1.75,0 -2,3.5 -0.5,3.75 -3.25,1 -2,0.25 -1.75,2.5 -2.5,0.5 -3.75,3.25 -2.5,3.75 -1.5,1 2.25,1.5 0.25,2 -4,1.5 -1.75,1.25 -3,-0.25 -2.75,1.75 -2,0.25 -2.25,-0.5 -2.75,1.25 -2.75,0 -2,-1 -1.5,0 -2,1.75 -2,0.25 -1.75,-0.75 -1.5,-2 -2.25,-1.75 -2,-1.25 -2.5,-0.75 -2.75,0 -3.75,-0.5 -2,-1.25 0.75,-3.25 -0.25,-1.75 -0.75,-1.75 -1.5,-0.25 -1.25,1 -7.75,0.25 -2.25,-1.75 -2,-2.25 c 0,0 -0.64447,2.16082 -0.5,3.75 l -1.75,2 -2.5,-0.25 -2.25,-0.5 -1.5,-1.25 -2.5,0.25 -1.5,-2.75 -2.25,-0.75 -3.25,-0.5 -1,-1.5 -2.5,-1 -1.5,-2.25 -1.75,-1.5 -2.75,0 -4,2 -3.25,2 -3.75,2.5 -2.25,1.5 -4.25,1.75 -2.5,1.5 -3,1 -3,1.25 -2.25,1.5 -2.5,4.25 -2.5,4 -1.5,3.5 0.75,3.25 0,3.25 0,2.75 -1,0.75 0,3.75 0,3.5 0.75,2 2.25,2.5 1.25,1.5 -0.75,1.75 -2,0 -2.25,-3 -1.5,-1.5 -2.5,0 -2.75,0.25 -2.5,2.75 -2,2 0,1.75 -1.5,0.25 -0.75,-1.5 -1.5,1.25 -2.75,0 -2.75,-1.75 -1.25,-1.75 -1.75,-1.75 -1.5,0 -1.5,1 -2.5,1 -1.25,0.75 -2.25,1 -2.5,-0.5 -1.5,-1 0.25,-2.5 -0.75,-2 -3,-1 -2,0.25 -0.25,-3.25 -1,-2.5 -2.25,-1.25 -2,-0.25 -1.75,0 -0.75,1.5 -6,-5 -2.25,-2 -4.75,0 -1,-0.5 -0.5,-1.5 -0.75,-0.5 -5,-0.5 -3.25,-0.75 -2.25,-0.5 -2.75,-1.5 0.25,4.25 -1.25,1.5 -2.25,0 -2.25,-0.75 -2.5,0 -2,0.25 -0.75,1.5 -2,-0.5 -2.25,-1.75 -3.25,-0.75 -6.5,0 -1.25,0 -1.75,-3.25 -1.5,0 -1,-1.25 -1.25,-1.75 -2,1.25 -5.75,0.25 -1.5,0.25 -0.75,0.5 -1.75,0.5 -2,-3.5 -2.25,-3.75 0.25,-1.75 -1.5,-0.75 -4.75,0 -2.5,-1.5 -3.75,-2.75 -2,-0.75 -1.5,0 -0.5,-4 -2.25,0.5 -0.75,2.5 0,1.75 -2.5,-0.75 -0.5,-3.25 1.25,-2 1.25,-1 -1.25,-2.25 -1.75,-2.5 -2,-1 -0.25,2 -1.25,0 -1,-2 -1.25,-1 -2.5,0.25 -0.75,0 -0.25,-1.75 2.75,-2.5 3.75,-3 3,-3.5 3,-5 2.25,-8.5 4.75,-15.75 1.25,-5 1,-14.25 1,-2.25 1.75,-1.25 3.5,0.25 0.75,-0.25 -0.5,-2.5 -1.75,-2.25 -1.25,1 -2,3 1.25,-6.75 3,-17.5 1.75,-13.5 1.5,-1.75 1.25,0 0,1.5 -0.25,1.25 2.75,2.75 2.75,2 1.75,3.25 1.25,4.5 0.5,4.25 0.75,3 4.25,4 -2.5,-6.5 0.25,-4.5 -1,-6.75 -2.25,-5 -3.5,-4.75 -2.25,-3 -2.25,0.25 -3.75,-2.75 -1,0 0.25,-4 1,-1.5 3,2.75 1.25,1 -1.25,-4.25 0.25,-1.25 2,-1.75 -1,-2.75 0.75,-3 1,-0.75 -1.25,-3.5 0,-3.25 1,-4 0.5,-2 -0.75,-1.5 -1.5,-1.5 -1,0.75 -1.5,1.75 -2,-0.5 -1.75,-1.5 -1.25,-0.25 -2.25,-1.5 -2,-2.75 -2.5,-0.75 -0.75,-2.25 -2.5,-0.25 -1.5,-2.5 -0.5,-3.5 -0.5,-1.75 -6.5,-8.5 -0.5,-2.25 0.75,-2.25 2.75,-1 0.5,-2.25 1.25,-1.25 0.5,-2.5 -1.5,-2.25 -1.25,-1.25 -2,0 -0.75,0.25 0.75,-2.75 2,-1.75 2,-1 2.75,-0.25 2,2 4,1.5 3.75,1 -5.5,-3.75 -3.5,-3.5 -2,-1.25 -4.75,0.25 -2.25,2.5 -2,1 -2,-1 -4.5,0 -0.75,0 -0.5,-3.25 0.25,-1 -0.75,-2.5 2.25,-0.75 1.5,-1.25 0,-1.75 1.25,-0.75 0,-0.75 -4.25,-0.5 -1.25,-1.25 -0.75,-1 -3.5,2.25 -2,0.5 -0.5,-2 4.75,-2.75 -0.75,-1.25 -1.75,-1.75 -3,0.5 -1.25,-0.5 -0.5,-1 -1.75,-0.25 -0.5,1.5 -1.5,0 -1,2.25 -0.5,0.75 -1,-1 -1,-2.75 1.25,-3.25 1.5,-1.5 -0.25,-2 -1,-1 -2,2.75 -1.5,0.75 -0.75,-0.75 1,-2.75 0,-1.75 -1.5,-0.5 -1.75,0.25 -2.25,2.25 -1.5,0 -2,-2.25 -2.25,-1.75 -2.75,-0.75 -3.5,0.25 -2,-3.5 -1.25,-2 -1.5,-0.5 -1,1 -1.25,-1.25 -0.5,-1.25 -1.5,0 0,2.25 -1.75,0.75 0,2 0,1 -5,-0.25 -0.75,-1.5 1,-1.75 0.5,-2.25 -2.75,-5 -1.25,-1 -1.5,0 -1,2 -0.75,0.5 -1,-1.5 -2.5,-0.25 -0.5,-1.25 1,-1.5 4.25,0.5 2.25,-0.75 4,0.25 1.75,0.5 2.5,-1.75 -2.5,-3.25 -2.5,-1.75 -3,0.25 -0.75,-1.75 0.25,-1 1.75,-0.5 2.75,0.75 6.25,2.75 1,-1.75 -3.75,-3.5 -2,0 -0.25,-2.75 -3.25,0.25 -2.25,1 -2,-0.75 -1.75,0 -0.75,-1 0,-3 1,-2 -1.25,-0.75 0,-1.5 3.25,-1 1.75,0.25 2.5,-2 4.25,0.5 1.75,-2.25 2.75,1.75 3.25,-0.75 4.5,-0.25 2,0 0.75,2 1.75,1 1.5,-2.5 2.75,0.5 3,2 1.25,-0.75 0.5,-2.75 2.5,-2.25 1.5,-1 2,1.5 2,-1.5 2.75,0.75 1,1.5 1,-2 0.75,-1.25 2,1 -0.5,2.25 1.25,1.25 0,1.75 2,2 3,3.5 0.75,4 3.25,2.25 4,-1.5 3,-1.75 3.25,-1.25 2.25,0.25 1.25,2.25 2.5,1.25 3,-0.75 2.25,2 1,0.75 -0.25,-3 0,-1.75 2.75,-1.75 1.75,1 -1.25,1.25 -0.25,2 2.5,0.75 3.5,0.75 2.75,-0.75 3,0 1.75,-0.75 -0.25,-1 -1.75,-2 -2,-0.5 -0.75,-3.5 0,-4.75 1.75,-1.5 0,-6.5 1,-3.25 0.75,-4.5 -3,-3.5 -1.5,-2.75 -2.5,-3.25 -0.5,-2.75 -0.25,-2 1.25,-1.25 -0.25,-4.25 -1.75,-1.75 -0.25,-1.75 1.5,-0.75 3.5,2.25 2.75,1.75 2.75,0.25 2.25,-0.5 1.75,-2 3.75,2 2,1.25 -1.25,2.75 -1.75,2 -1,1.5 2,2.25 0.75,3 0,1.75 2,1.25 2,0 2.25,-1.25 2.5,1.25 3.75,1.5 4,-0.25 1.75,1.25 4,-0.25 3.5,0.5 2.75,2.5 2.25,1.25 3.25,-0.75 4,-2.5 4,-2 4,-1 4,-0.75 -5.25,-1.25 -2.5,-1 -2,1 -0.75,-3.75 1.5,-5 5,-4 6.25,-3.25 4.5,-2 5,0 5,-1.25 4.5,-1.75 2,-0.75 2.5,-3.5 3,-2 2.5,-1 0,-2.5 1.25,-1 3,2 1,-1.25 -1.25,-2 -0.5,-4.25 0.5,-2 -1,-1 0,-5.25 1,-2.5 0.25,-6.25 1,-2 -0.25,-5.25 3.5,-3.75 5,-1 7,-2 3,-0.25 6,-2.5 2.25,-0.75 z"
       style="fill:none;fill-rule:evenodd;stroke:#000000;stroke-width:1px;stroke-linecap:butt;stroke-linejoin:miter;stroke-opacity:1"
       inkscape:connector-curvature="0" />
  </g>
  <g
     inkscape:groupmode="layer"
     id="cities"
     inkscape:label="cities"
     style="display:inline">
    <circle
       cy="57.8125"
       cx="230"
       id="Amiens"
       style="display:inline;opacity:1;fill:#ff0000"
       r="2" />
    <circle
       cy="239.8125"
       cx="347"
       id="Annecy"
       style="display:inline;opacity:1;fill:#ff0000"
       r="2" />
    <circle
       cy="353.8125"
       cx="297"
       id="Arles"
       style="display:inline;opacity:1;fill:#ff0000"
       r="2" />
    <circle
       cy="162.8125"
       cx="262"
       id="Auxerre"
       style="display:inline;opacity:1;fill:#ff0000"
       r="2" />
    <circle
       cy="338.3125"
       cx="301.5"
       id="Avignon"
       style="display:inline;opacity:1;fill:#ff0000"
       r="2" />
    <circle
       cy="185.8125"
       cx="340"
       id="Besancon"
       style="display:inline;opacity:1;fill:#ff0000"
       r="2" />
    <circle
       cy="347.3125"
       cx="92"
       id="Biarritz"
       style="display:inline;opacity:1;fill:#ff0000"
       r="2" />
    <circle
       cy="286.3125"
       cx="126.5"
       id="Bordeaux"
       style="display:inline;opacity:1;fill:#ff0000"
       r="2" />
    <circle
       cy="189.8125"
       cx="231.5"
       id="Bourges"
       style="display:inline;opacity:1;fill:#ff0000"
       r="2" />
    <circle
       cy="116.8125"
       cx="35"
       id="Brest"
       style="display:inline;opacity:1;fill:#ff0000"
       r="2" />
    <circle
       cy="88.8125"
       cx="150"
       id="Caen"
       style="display:inline;opacity:1;fill:#ff0000"
       r="2" />
    <circle
       cy="12.3125"
       cx="227"
       id="Calais"
       style="display:inline;opacity:1;fill:#ff0000"
       r="2" />
    <circle
       cy="369.8125"
       cx="230"
       id="Carcassonne"
       style="display:inline;opacity:1;fill:#ff0000"
       r="2" />
    <circle
       cy="256.8125"
       cx="345.5"
       id="Chambery"
       style="display:inline;opacity:1;fill:#ff0000"
       r="2" />
    <circle
       cy="124.3125"
       cx="204.5"
       id="Chartres"
       style="display:inline;opacity:1;fill:#ff0000"
       r="2" />
    <circle
       cy="66.8125"
       cx="116.5"
       id="Cherbourg"
       style="display:inline;opacity:1;fill:#ff0000"
       r="2" />
    <circle
       cy="256.3125"
       cx="256"
       id="Clermont-Ferrand"
       style="display:inline;opacity:1;fill:#ff0000"
       r="2" />
    <circle
       cy="151.3125"
       cx="374.5"
       id="Colmar"
       style="display:inline;opacity:1;fill:#ff0000"
       r="2" />
    <circle
       cy="163.8125"
       cx="321.5"
       id="Dijon"
       style="display:inline;opacity:1;fill:#ff0000"
       r="2" />
    <circle
       cy="281.8125"
       cx="333"
       id="Grenoble"
       style="display:inline;opacity:1;fill:#ff0000"
       r="2" />
    <circle
       cy="223.8125"
       cx="117"
       id="La Rochelle"
       style="display:inline;opacity:1;fill:#ff0000"
       r="2" />
    <circle
       cy="29.3125"
       cx="238"
       id="Lille"
       style="display:inline;opacity:1;fill:#ff0000"
       r="2" />
    <circle
       cy="245.3125"
       cx="187.5"
       id="Limoges"
       style="display:inline;opacity:1;fill:#ff0000"
       r="2" />
    <circle
       cy="254.3125"
       cx="303"
       id="Lyon"
       style="display:inline;opacity:1;fill:#ff0000"
       r="2" />
    <circle
       cy="227.3125"
       cx="306"
       id="Macon"
       style="display:inline;opacity:1;fill:#ff0000"
       r="2" />
    <circle
       cy="368.3125"
       cx="319.5"
       id="Marseille"
       style="display:inline;opacity:1;fill:#ff0000"
       r="2" />
    <circle
       cy="99.8125"
       cx="343.5"
       id="Metz"
       style="display:inline;opacity:1;fill:#ff0000"
       r="2" />
    <circle
       cy="355.3125"
       cx="265.5"
       id="Montpellier"
       style="display:inline;opacity:1;fill:#ff0000"
       r="2" />
    <circle
       cy="119.3125"
       cx="347"
       id="Nancy"
       style="display:inline;opacity:1;fill:#ff0000"
       r="2" />
    <circle
       cy="176.3125"
       cx="106"
       id="Nantes"
       style="display:inline;opacity:1;fill:#ff0000"
       r="2" />
    <circle
       cy="345.8125"
       cx="384.5"
       id="Nice"
       style="display:inline;opacity:1;fill:#ff0000"
       r="2" />
    <circle
       cy="346.3125"
       cx="283.5"
       id="Nimes"
       style="display:inline;opacity:1;fill:#ff0000"
       r="2" />
    <circle
       cy="99.8125"
       cx="217.5"
       id="Paris"
       style="display:inline;opacity:1;fill:#ff0000"
       r="2" />
    <circle
       cy="360.3125"
       cx="132.5"
       id="Pau"
       style="display:inline;opacity:1;fill:#ff0000"
       r="2" />
    <circle
       cy="396.8125"
       cx="234.5"
       id="Perpignan"
       style="display:inline;opacity:1;fill:#ff0000"
       r="2" />
    <circle
       cy="208.8125"
       cx="161.5"
       id="Poitiers"
       style="display:inline;opacity:1;fill:#ff0000"
       r="2" />
    <circle
       cy="94.3125"
       cx="286"
       id="Reims"
       style="display:inline;opacity:1;fill:#ff0000"
       r="2" />
    <circle
       cy="132.8125"
       cx="110"
       id="Rennes"
       style="display:inline;opacity:1;fill:#ff0000"
       r="2" />
    <circle
       cy="78.8125"
       cx="194"
       id="Rouen"
       style="display:inline;opacity:1;fill:#ff0000"
       r="2" />
    <circle
       cy="247.3125"
       cx="116.5"
       id="Royan"
       style="display:inline;opacity:1;fill:#ff0000"
       r="2" />
    <circle
       cy="114.8125"
       cx="104"
       id="Saint-Malo"
       style="display:inline;opacity:1;fill:#ff0000"
       r="2" />
    <circle
       cy="121.3125"
       cx="391"
       id="Strasbourg"
       style="display:inline;opacity:1;fill:#ff0000"
       r="2" />
    <circle
       cy="377.3125"
       cx="334"
       id="Toulon"
       style="display:inline;opacity:1;fill:#ff0000"
       r="2" />
    <circle
       cy="349.8125"
       cx="187"
       id="Toulouse"
       style="display:inline;opacity:1;fill:#ff0000"
       r="2" />
    <circle
       cy="175.3125"
       cx="169"
       id="Tours"
       style="display:inline;opacity:1;fill:#ff0000"
       r="2" />
  </g>
</svg>
